# xmcd
#
# Track frame offsets:
#	182
#	14407
#	32857
#	43507
#	60607
#	75157
#	85132
#	108982
#	123607
#	135082
#	150607
#	166432
#	174907
#	188032
#
# Disc length: 2822 seconds
#
# Revision: 1
# Processed by: cddbd v1.5.1PL0 Copyright (c) Steve Scherf et al.
# Submitted via: audiograbber 1.83.01
#
DISCID=a10b040e
DTITLE=Peter Horan - Country Jam
DYEAR=1900
DGENRE=
TTITLE0=I Fall To Pieces - Your Cheatin' Heart - Peter Horan
TTITLE1=Crazy - Peter Horan
TTITLE2=San Antonio Rose - Peter Horan
TTITLE3=Maggie - Peter Horan
TTITLE4=Last Date - Peter Horan
TTITLE5=Mollydooker - Peter Horan
TTITLE6=He'll Have To Go - Lay Down Beside Me - Peter Horan
TTITLE7=Rose Marie - China Doll - Peter Horan
TTITLE8=Tennessee Waltz - Peter Horan
TTITLE9=On The Inside - Peter Horan
TTITLE10=Always On My Mind - Peter Horan
TTITLE11=Country Revival - Peter Horan
TTITLE12=The Waltz - Peter Horan
TTITLE13=Room Full Of Roses - Paper Rose - Peter Horan
EXTD=
EXTT0=
EXTT1=
EXTT2=
EXTT3=
EXTT4=
EXTT5=
EXTT6=
EXTT7=
EXTT8=
EXTT9=
EXTT10=
EXTT11=
EXTT12=
EXTT13=
PLAYORDER=
